<mxfile host="65bd71144e">
    <diagram name="Page-1" id="12e1b939-464a-85fe-373e-61e167be1490">
        <mxGraphModel dx="856" dy="619" grid="1" gridSize="10" guides="1" tooltips="1" connect="1" arrows="1" fold="1" page="1" pageScale="1.5" pageWidth="1169" pageHeight="826" background="none" math="0" shadow="0">
            <root>
                <mxCell id="0"/>
                <mxCell id="1" parent="0"/>
                <mxCell id="9oFfFG6UcARXRzJ5V_77-12" value="" style="whiteSpace=wrap;html=1;rounded=1;shadow=0;strokeWidth=7;fontSize=20;align=center;fillColor=#4D4D4D;strokeColor=none;fontColor=#333333;" parent="1" vertex="1">
                    <mxGeometry x="300" y="400" width="250" height="400" as="geometry"/>
                </mxCell>
                <mxCell id="9oFfFG6UcARXRzJ5V_77-13" value="EVENT" style="text;html=1;strokeColor=none;fillColor=none;align=center;verticalAlign=middle;whiteSpace=wrap;rounded=0;shadow=0;fontSize=18;fontColor=#FFFFFF;fontStyle=0;fontFamily=varela round;" parent="1" vertex="1">
                    <mxGeometry x="310" y="400" width="230" height="60" as="geometry"/>
                </mxCell>
                <mxCell id="9oFfFG6UcARXRzJ5V_77-14" value="SUBMIT THE &lt;br&gt;EVENT" style="text;html=1;strokeColor=none;fillColor=none;align=center;verticalAlign=middle;whiteSpace=wrap;rounded=0;shadow=0;fontSize=16;fontColor=#CCCCCC;fontFamily=varela round;" parent="1" vertex="1">
                    <mxGeometry x="328" y="710" width="194" height="90" as="geometry"/>
                </mxCell>
                <mxCell id="9oFfFG6UcARXRzJ5V_77-15" value="" style="line;strokeWidth=2;html=1;rounded=0;shadow=0;fontSize=27;align=center;fillColor=none;strokeColor=#E6E6E6;" parent="1" vertex="1">
                    <mxGeometry x="320" y="460" width="210" height="10" as="geometry"/>
                </mxCell>
                <mxCell id="9oFfFG6UcARXRzJ5V_77-16" value="" style="line;strokeWidth=2;html=1;rounded=0;shadow=0;fontSize=27;align=center;fillColor=none;strokeColor=#E6E6E6;" parent="1" vertex="1">
                    <mxGeometry x="320" y="720" width="210" height="10" as="geometry"/>
                </mxCell>
                <mxCell id="60da8b9f42644d3a-2" value="" style="whiteSpace=wrap;html=1;rounded=1;shadow=0;strokeWidth=7;fontSize=20;align=center;fillColor=#4D4D4D;strokeColor=none;fontColor=#333333;" parent="1" vertex="1">
                    <mxGeometry x="561" y="400" width="250" height="400" as="geometry"/>
                </mxCell>
                <mxCell id="60da8b9f42644d3a-3" value="POLICY" style="text;html=1;strokeColor=none;fillColor=none;align=center;verticalAlign=middle;whiteSpace=wrap;rounded=0;shadow=0;fontSize=18;fontColor=#FFFFFF;fontStyle=0;fontFamily=varela round;" parent="1" vertex="1">
                    <mxGeometry x="546" y="400" width="280" height="60" as="geometry"/>
                </mxCell>
                <mxCell id="60da8b9f42644d3a-4" value="EVALUTE CONDITIONS OF A&lt;br style=&quot;font-size: 16px&quot;&gt;POLICY" style="text;html=1;strokeColor=none;fillColor=none;align=center;verticalAlign=middle;whiteSpace=wrap;rounded=0;shadow=0;fontSize=16;fontColor=#CCCCCC;fontFamily=varela round;" parent="1" vertex="1">
                    <mxGeometry x="551" y="710" width="270" height="90" as="geometry"/>
                </mxCell>
                <mxCell id="60da8b9f42644d3a-17" value="" style="whiteSpace=wrap;html=1;rounded=1;shadow=0;strokeWidth=7;fontSize=20;align=center;fillColor=#4D4D4D;strokeColor=none;fontColor=#333333;" parent="1" vertex="1">
                    <mxGeometry x="823.5" y="400" width="250" height="400" as="geometry"/>
                </mxCell>
                <mxCell id="60da8b9f42644d3a-18" value="HANDLER" style="text;html=1;strokeColor=none;fillColor=none;align=center;verticalAlign=middle;whiteSpace=wrap;rounded=0;shadow=0;fontSize=18;fontColor=#FFFFFF;fontStyle=0;fontFamily=varela round;" parent="1" vertex="1">
                    <mxGeometry x="806.75" y="400" width="280" height="60" as="geometry"/>
                </mxCell>
                <mxCell id="60da8b9f42644d3a-19" value="ASSOCIATE A POLICY TO&lt;br style=&quot;font-size: 16px&quot;&gt;HANDLERS" style="text;html=1;strokeColor=none;fillColor=none;align=center;verticalAlign=middle;whiteSpace=wrap;rounded=0;shadow=0;fontSize=16;fontColor=#CCCCCC;fontFamily=varela round;" parent="1" vertex="1">
                    <mxGeometry x="811.75" y="710" width="270" height="90" as="geometry"/>
                </mxCell>
                <mxCell id="60da8b9f42644d3a-22" value="EVALUATE" style="ellipse;whiteSpace=wrap;html=1;rounded=0;shadow=0;strokeWidth=6;fontSize=14;align=center;fillColor=#333333;strokeColor=#FFFFFF;fontStyle=1;aspect=fixed;fontColor=#FFFFFF;fontFamily=varela round;" parent="1" vertex="1">
                    <mxGeometry x="494" y="535" width="125" height="125" as="geometry"/>
                </mxCell>
                <mxCell id="60da8b9f42644d3a-24" value="" style="whiteSpace=wrap;html=1;rounded=1;shadow=0;strokeWidth=7;fontSize=20;align=center;fillColor=#4D4D4D;strokeColor=none;fontColor=#333333;" parent="1" vertex="1">
                    <mxGeometry x="1084" y="400" width="250" height="400" as="geometry"/>
                </mxCell>
                <mxCell id="60da8b9f42644d3a-26" value="HANDLERS ADAPT&amp;nbsp;&lt;br&gt;ENTITIES" style="text;html=1;strokeColor=none;fillColor=none;align=center;verticalAlign=middle;whiteSpace=wrap;rounded=0;shadow=0;fontSize=16;fontColor=#CCCCCC;fontFamily=varela round;" parent="1" vertex="1">
                    <mxGeometry x="1111" y="710" width="196" height="90" as="geometry"/>
                </mxCell>
                <mxCell id="60da8b9f42644d3a-29" value="ASSOCIATE" style="ellipse;whiteSpace=wrap;html=1;rounded=0;shadow=0;strokeWidth=6;fontSize=14;align=center;fillColor=#333333;strokeColor=#FFFFFF;fontStyle=1;aspect=fixed;fontColor=#FFFFFF;fontFamily=varela round;" parent="1" vertex="1">
                    <mxGeometry x="756" y="535" width="125" height="125" as="geometry"/>
                </mxCell>
                <mxCell id="9oFfFG6UcARXRzJ5V_77-5" value="" style="shape=flexArrow;endArrow=classic;html=1;fontSize=17;endWidth=32;endSize=15.33;width=43;fillColor=#dae8fc;strokeColor=#6c8ebf;" parent="1" edge="1">
                    <mxGeometry width="50" height="50" relative="1" as="geometry">
                        <mxPoint x="896.75" y="597" as="sourcePoint"/>
                        <mxPoint x="996.75" y="597" as="targetPoint"/>
                    </mxGeometry>
                </mxCell>
                <mxCell id="9oFfFG6UcARXRzJ5V_77-7" value="" style="shape=flexArrow;endArrow=classic;html=1;fontSize=17;endWidth=32;endSize=15.33;width=43;fillColor=#dae8fc;strokeColor=#6c8ebf;" parent="1" edge="1">
                    <mxGeometry width="50" height="50" relative="1" as="geometry">
                        <mxPoint x="633.5" y="597" as="sourcePoint"/>
                        <mxPoint x="733.5" y="597" as="targetPoint"/>
                    </mxGeometry>
                </mxCell>
                <mxCell id="9oFfFG6UcARXRzJ5V_77-18" value="ADAPT" style="ellipse;whiteSpace=wrap;html=1;rounded=0;shadow=0;strokeWidth=6;fontSize=14;align=center;fillColor=#333333;strokeColor=#FFFFFF;fontStyle=1;aspect=fixed;fontColor=#FFFFFF;fontFamily=varela round;" parent="1" vertex="1">
                    <mxGeometry x="1015" y="535" width="125" height="125" as="geometry"/>
                </mxCell>
                <mxCell id="_U_NyWPthFaLwzyi-4gR-6" value="ENTITY" style="text;html=1;strokeColor=none;fillColor=none;align=center;verticalAlign=middle;whiteSpace=wrap;rounded=0;shadow=0;fontSize=18;fontColor=#FFFFFF;fontStyle=0;fontFamily=varela round;" parent="1" vertex="1">
                    <mxGeometry x="1069" y="400" width="280" height="60" as="geometry"/>
                </mxCell>
                <mxCell id="tsc7tQdLC27ZrwXHhPcm-1" value="" style="shape=image;verticalLabelPosition=bottom;verticalAlign=top;imageAspect=0;aspect=fixed;image=data:image/png,iVBORw0KGgoAAAANSUhEUgAAAHgAAAB4CAYAAAA5ZDbSAAAAGXRFWHRTb2Z0d2FyZQBBZG9iZSBJbWFnZVJlYWR5ccllPAAAAyRpVFh0WE1MOmNvbS5hZG9iZS54bXAAAAAAADw/eHBhY2tldCBiZWdpbj0i77u/IiBpZD0iVzVNME1wQ2VoaUh6cmVTek5UY3prYzlkIj8+IDx4OnhtcG1ldGEgeG1sbnM6eD0iYWRvYmU6bnM6bWV0YS8iIHg6eG1wdGs9IkFkb2JlIFhNUCBDb3JlIDUuNS1jMDIxIDc5LjE1NDkxMSwgMjAxMy8xMC8yOS0xMTo0NzoxNiAgICAgICAgIj4gPHJkZjpSREYgeG1sbnM6cmRmPSJodHRwOi8vd3d3LnczLm9yZy8xOTk5LzAyLzIyLXJkZi1zeW50YXgtbnMjIj4gPHJkZjpEZXNjcmlwdGlvbiByZGY6YWJvdXQ9IiIgeG1sbnM6eG1wTU09Imh0dHA6Ly9ucy5hZG9iZS5jb20veGFwLzEuMC9tbS8iIHhtbG5zOnN0UmVmPSJodHRwOi8vbnMuYWRvYmUuY29tL3hhcC8xLjAvc1R5cGUvUmVzb3VyY2VSZWYjIiB4bWxuczp4bXA9Imh0dHA6Ly9ucy5hZG9iZS5jb20veGFwLzEuMC8iIHhtcE1NOkRvY3VtZW50SUQ9InhtcC5kaWQ6RERCMUIwQTM4NkNFMTFFM0FBNTJFRTMzNTJEMUJDNDYiIHhtcE1NOkluc3RhbmNlSUQ9InhtcC5paWQ6RERCMUIwQTI4NkNFMTFFM0FBNTJFRTMzNTJEMUJDNDYiIHhtcDpDcmVhdG9yVG9vbD0iQWRvYmUgUGhvdG9zaG9wIENTNiAoTWFjaW50b3NoKSI+IDx4bXBNTTpEZXJpdmVkRnJvbSBzdFJlZjppbnN0YW5jZUlEPSJ4bXAuaWlkOkU1MTc4QTMyOTlBMDExRTI5QTE1QkMxMDQ2QTg5MDREIiBzdFJlZjpkb2N1bWVudElEPSJ4bXAuZGlkOjJBNDE0QUJDOTlBMTExRTI5QTE1QkMxMDQ2QTg5MDREIi8+IDwvcmRmOkRlc2NyaXB0aW9uPiA8L3JkZjpSREY+IDwveDp4bXBtZXRhPiA8P3hwYWNrZXQgZW5kPSJyIj8+8kSqyAAADD5JREFUeNrsXQ2QlVUZfllYUBe2YCuQFNel9Q9EcVEQSA3xB2pTSVcESjELnZomBW0ya5w0m1GyzKSmtEYDc6hGohRDrUGQZUko0EARCAXK+FEwXFz2yvY+fO/d+fbu/fm++533+7n3PDPPwC6Xc77zPvc7P+95z3t6dHR0kEXpoleJtGMwcwTzE8w6Zi1zELNG2JfZJ+P/tDEPMPcK32JuY25lbmauZ/476YbpkcA3+BjmucxxwlHMAUp1vc18ifmisJnZagU2jyHMKcxJzPOzvI1hAW/9MuYS5pPMN6zAxeNjzOnMq5mjY/qMLcyFzPnMXVZgb7iQOYt5ObMyIT1hO/MPzJ8xn7cCZ5/sTWXeKpOlJAOTs/uYTzBT5S4whJ3BvIM5tMRWKFuYd0v3nSpHgT/NnMs8pcSXoq8xZzOfKheBT2I+wLy0zHwOzzC/LoKHhooQ68KE6XYZo8pNXJI2rxMbVJbaG3wa83HmGWRBIvQ05oakv8E9mF9hrrHidsEZYpOvio0S+QbD//tL5lVWz7z4HXMmOX7xxAhcz1wkXbNFYWxkXsZ8PQld9HjmKiuuL5wqNhsfd4GbyHHVDbCa+cYAsV1TXAXGOPIbZm+rVdHoLTa8Pm4C3yQTqgqrkRFNHhGbxmKSNVPEtTCPLwa1bVCBm6RLsW+uDg4zryFnzzl0gcfLpMCOubo4RM4e+YowBa6Xab2dLYcDxIaNKWadXIzA8FCtlrWbRXiAM+Qc8unx8jt2wm/6KytuJDhVbN9DU2BsHFwZ8EH3keNof1n+XurYJ21Fm/cHLOtK0UCli4brcS0FD1n9DHWNbjhOJhHYL4U/9uiEC3qQnAC8Z2QSusP1b43MxQHLR+huA/OfJgXGBvXfKPiWHyYLOHHQnuPfq8mJ0UJUZdKC7/CWIqoSMVjv5rHjf5n9A9aF/eSz89jRdxd9G5nZz11S4KFgmHlSF4LcWxIg7Gp51hHy7O/m+Wy72CAoYJ9vmBqDT2Z+25AxXvDxWXRxOKLyOXLOC8UNW2VMHCPP6hXLDdV/h2gTuIv+M/NiQw/VIOO4X2DcnyNftFxzgDdkXHqVuZOcg2MgDpa9J2Njm6s8jPVV5BxOGyz8ODlRnsOYJ+QZA+9h3st8v0gbvGTInkuZlwQRGKGtfzL0MO1i0PYAZcDBAkf8cOZK6RGWy/hnOiIC6/3TyfHYnUfOQTd8gW6gYJGRlfKFMxV4lzlp9SxwL2nQSYYe5M08b4XftTh4OOQuOT2cmah3u6weTOB1WeGk/I7BMwyKC7xlqJyOCMRNC2uq3v8YfK560crXJKtSBnHT60MLB6bPGEOr3n4ExkGwoVaHxABaXe1H4DkKD3GU1aETGt66W70KPJF0vEgnWF07MUShzNNFu4IC36jUqIHMflbbIzYYqFT2TYUERtqEzypVjqXNWVbfIzbQOq7SKBrmFHgG6Z58m2j1VbVBZeaSKVPgJuXGNVp91W3QlEtgJBDTzmZzt9VX3Qaj3Utct8CXK1d8Fzkn6codsMF3leu4LJvAkxQrXBVCo5KEu8QmWpjcObOVzQakB0S0hUYGuQ9kjbbR6toF2JbELphGvlBsaSKkuTX9Bo8jvfSAD1lxs+JVsY0G+oimnV30WKWKsCH+PatlTtxDxQUNeMFYt8DjlCr5NcU0h2NMsEtspIFx7jF4L+kcQ8GUfbXVMS9wWkEjuBBzqhoIjDikHQoVbCW75egVW8QPYRrHoYvWij9+2urmGUuUyh0BgeuVCl9hdYvcVvUQuFapcDv2Rm+rWi2BERr7ptXNM2CrlJbAgxQKRljoB1Y3z4C4OxXKHQSBaxQK/p/VzDc0jtLWaAm83+rlGwe0BNaIk+pp9fINjU2HfhBYI0tOX6uXb2iEFffWym9VZfXyjWqNQrUEtrmzYmIz+KI1EkYfki7HXm3q/UXDtmGlRsEppW/jYKubZwwmnXDlVIXikuZEq5tn1CmVu7+C9HJV1VndIn8Z9kHg3UqFj7K6ecbZSuXuhsA7lQofa3WL3FY7NQU+k5xwXIvCPoMRmgJvVioc7soJVr+CmEB6rt3NEHiT4sNPsfoVxBWKZW+CowPpfLYrVYBtQ+w3t1odswJDGLIPaR2MPx5vMCIq9ypVgAefbnXMiemK4iJsdkfaF71GsRG3kL20Ixt6iW20cCRdYtrwKxUrwiGra62e3fB50r39vNkt8IvKjcEZnGqraSeqxSaaWOEWGD+0KVaGidb9VtdO/Ih0gh3TaMsUGFtVy5UbhVu8plltjyRJmalcx3LRtMvk548hNO5hcpJ8lytw4u/nIdTTmQLanU4Ymei2hVA5Ut4jwXhLmYmLk5ZLQ5qL1JKTIL3LG4xfhHHcpFoaenEZiYv8J8+GJO7qtLiUZX26IMRZJE7U3UmlHWKLtiFt0lMUXhrHx90/ZGZ8/yg5u0uVIRoBSzRc9rSuxMRFysJ5pJ97zA2cCYPreVeuNxib/4simHjAk/YT0snCGjYQnfELcjxJo0OuexFlpMzIdmfDBcy/+ii0WWZtKBjZArB5jS2wXkV+AzFM/JSSdfwUyUU/SU6m3qYIh50JmdrlupQDV9+M9FAgbg/5EHU/SYiu/mbmbCo+3hepl56QL8/fKX4huD1lyYekY1Mp+iBDDHFndvvm5RAYi3Gv2V9uZ34/y0IbnpTH5I0cGfDhcR3cC9Jb4Iq9Vyj8iy0xtuE6n1HSS0HcD8foCwff9nyvAqN7RaIur0lUHiDnqrU215pvgMyUEZKykFzp9QwB25xbZD39TTJ/Ewsmmj+WttRJTxVXwA7YuOge4w6Bc/DaDn/YyByZUcYVzGXMY+VP0ziQpU6TbGC+3xF/XJerDfkaV8Fc77OiVuYlrjKGMXczJzFrmNsNN2yWorhpfi3m4r4sWmV9/kJX28ED4zcdEu5HQlbzbHvMkynPNWxFTCrOIv1LsjCZQtLQuN56PpnypGEqFGmxhPzfXYgrY35PXe8OqBJXHcaIRw017D4K5wY0rBDujam4T1OBHFtebh/FRAt3GPrNRovdqfQFH8fIpAj37OG2TORKPjlAwxDMN5DCu02trziB4nT3Eya0w2SCRcW+wekZ2neKeIBG18y5VTxWt8nyppGCBdz/hcK9Ku+A1Bkn3FlIXK8CA/dTcXfe/sBVBxwXy6S7xloSV9duKLJxKyMwaJwy98G1O9fLB70KnBLnh9+35hTqfssI7uPFjseD5By6wpfgkI8yEai/NAKjxiWp+UHRImVSYOA1cT/6xeyMn58jJ7LjoHTdc8TN9y1ydpYyg+T3iGcM9xyMkS/NPyIw7LaYCHyzOKG8oYh14fwi1mrn5invROazzAeZR8nv+jOHMPu5PjeKOZd5fghr32ysjcGad4Hf5y6moVXMdT4frJnZM0d5dcw98rkG+d158rsNIjZ+t1Y+Mz8igT8SsbhwOvX1+9zFnDh4T5Y/fg6Oj5FZXzYgcfjx5ISRrnGNM0jQ+S+Xfxt3AV3KvD6irjEVYbe8R2zuOxuel3VwLmA35XnydxcuIjfmUTKBnaN3IppUTSx25RDkzBC27qb69CY9JNP7ygQKHMUzw7bTgiwLgx4KW8z8gk+RMatGQMFFCRO4KgJxYdtAIVQmTv0tkHHRj8jDZS2Lvdwbyd8xjmOp9JOdwpazyECUa5AxOBM46/pYgC8N3G6vyHpzn6yHEeuEdMfYuKgl54o8BBL0p/AjOmpl0hfWm2skhNlkCls8EJKqLfQ58UpjKHmPIOlTom/uQZnXLDZVoOmD2dha/BTp33Z2dAmKC5tdaFJcDYFJxtVzInInJhXrxWbNpgvWSq2AszHYVHjUalcQiF4dS67zREkQGIDH6zrmDfJ3i+72+ZJMqNTsE0ZylEfICchusZp2GcYQT/awdkVhZb9BNj1EdNxC4UZixHGWPEdssSmMCsNMb4TgtR+SE534ZBmKizafRk6AQ2iXhkWRvwqTiSmyJFhbBsLiXNVF0uZtYVceZYIyBLEhNusa8h8Ok4SUTBulbWjjc1E9RNQZ6OAnxQlC+KZx7HKVx//3dgTP6jXNVIu0Zbi07XCUBjbpizYFBAekz9lm81itoeiyySOytCGH+L8l51zzyjgZM44Cp4EN9qvI2cRAcAE2HnC4+ctaTgEPqCXn9P4F8maix1kg4r4TRyPGWWCLEhiDLZTxfwEGAIg2ItsKhKpcAAAAAElFTkSuQmCC" vertex="1" parent="1">
                    <mxGeometry x="381.25" y="553.75" width="87.5" height="87.5" as="geometry"/>
                </mxCell>
                <mxCell id="tsc7tQdLC27ZrwXHhPcm-3" value="" style="shape=image;verticalLabelPosition=bottom;verticalAlign=top;imageAspect=0;aspect=fixed;image=data:image/png,iVBORw0KGgoAAAANSUhEUgAAAHgAAAB4CAYAAAA5ZDbSAAAAGXRFWHRTb2Z0d2FyZQBBZG9iZSBJbWFnZVJlYWR5ccllPAAAAyRpVFh0WE1MOmNvbS5hZG9iZS54bXAAAAAAADw/eHBhY2tldCBiZWdpbj0i77u/IiBpZD0iVzVNME1wQ2VoaUh6cmVTek5UY3prYzlkIj8+IDx4OnhtcG1ldGEgeG1sbnM6eD0iYWRvYmU6bnM6bWV0YS8iIHg6eG1wdGs9IkFkb2JlIFhNUCBDb3JlIDUuNS1jMDIxIDc5LjE1NDkxMSwgMjAxMy8xMC8yOS0xMTo0NzoxNiAgICAgICAgIj4gPHJkZjpSREYgeG1sbnM6cmRmPSJodHRwOi8vd3d3LnczLm9yZy8xOTk5LzAyLzIyLXJkZi1zeW50YXgtbnMjIj4gPHJkZjpEZXNjcmlwdGlvbiByZGY6YWJvdXQ9IiIgeG1sbnM6eG1wTU09Imh0dHA6Ly9ucy5hZG9iZS5jb20veGFwLzEuMC9tbS8iIHhtbG5zOnN0UmVmPSJodHRwOi8vbnMuYWRvYmUuY29tL3hhcC8xLjAvc1R5cGUvUmVzb3VyY2VSZWYjIiB4bWxuczp4bXA9Imh0dHA6Ly9ucy5hZG9iZS5jb20veGFwLzEuMC8iIHhtcE1NOkRvY3VtZW50SUQ9InhtcC5kaWQ6RERCMUIwQTM4NkNFMTFFM0FBNTJFRTMzNTJEMUJDNDYiIHhtcE1NOkluc3RhbmNlSUQ9InhtcC5paWQ6RERCMUIwQTI4NkNFMTFFM0FBNTJFRTMzNTJEMUJDNDYiIHhtcDpDcmVhdG9yVG9vbD0iQWRvYmUgUGhvdG9zaG9wIENTNiAoTWFjaW50b3NoKSI+IDx4bXBNTTpEZXJpdmVkRnJvbSBzdFJlZjppbnN0YW5jZUlEPSJ4bXAuaWlkOkU1MTc4QTMyOTlBMDExRTI5QTE1QkMxMDQ2QTg5MDREIiBzdFJlZjpkb2N1bWVudElEPSJ4bXAuZGlkOjJBNDE0QUJDOTlBMTExRTI5QTE1QkMxMDQ2QTg5MDREIi8+IDwvcmRmOkRlc2NyaXB0aW9uPiA8L3JkZjpSREY+IDwveDp4bXBtZXRhPiA8P3hwYWNrZXQgZW5kPSJyIj8+8kSqyAAADD5JREFUeNrsXQ2QlVUZfllYUBe2YCuQFNel9Q9EcVEQSA3xB2pTSVcESjELnZomBW0ya5w0m1GyzKSmtEYDc6hGohRDrUGQZUko0EARCAXK+FEwXFz2yvY+fO/d+fbu/fm++533+7n3PDPPwC6Xc77zPvc7P+95z3t6dHR0kEXpoleJtGMwcwTzE8w6Zi1zELNG2JfZJ+P/tDEPMPcK32JuY25lbmauZ/476YbpkcA3+BjmucxxwlHMAUp1vc18ifmisJnZagU2jyHMKcxJzPOzvI1hAW/9MuYS5pPMN6zAxeNjzOnMq5mjY/qMLcyFzPnMXVZgb7iQOYt5ObMyIT1hO/MPzJ8xn7cCZ5/sTWXeKpOlJAOTs/uYTzBT5S4whJ3BvIM5tMRWKFuYd0v3nSpHgT/NnMs8pcSXoq8xZzOfKheBT2I+wLy0zHwOzzC/LoKHhooQ68KE6XYZo8pNXJI2rxMbVJbaG3wa83HmGWRBIvQ05oakv8E9mF9hrrHidsEZYpOvio0S+QbD//tL5lVWz7z4HXMmOX7xxAhcz1wkXbNFYWxkXsZ8PQld9HjmKiuuL5wqNhsfd4GbyHHVDbCa+cYAsV1TXAXGOPIbZm+rVdHoLTa8Pm4C3yQTqgqrkRFNHhGbxmKSNVPEtTCPLwa1bVCBm6RLsW+uDg4zryFnzzl0gcfLpMCOubo4RM4e+YowBa6Xab2dLYcDxIaNKWadXIzA8FCtlrWbRXiAM+Qc8unx8jt2wm/6KytuJDhVbN9DU2BsHFwZ8EH3keNof1n+XurYJ21Fm/cHLOtK0UCli4brcS0FD1n9DHWNbjhOJhHYL4U/9uiEC3qQnAC8Z2QSusP1b43MxQHLR+huA/OfJgXGBvXfKPiWHyYLOHHQnuPfq8mJ0UJUZdKC7/CWIqoSMVjv5rHjf5n9A9aF/eSz89jRdxd9G5nZz11S4KFgmHlSF4LcWxIg7Gp51hHy7O/m+Wy72CAoYJ9vmBqDT2Z+25AxXvDxWXRxOKLyOXLOC8UNW2VMHCPP6hXLDdV/h2gTuIv+M/NiQw/VIOO4X2DcnyNftFxzgDdkXHqVuZOcg2MgDpa9J2Njm6s8jPVV5BxOGyz8ODlRnsOYJ+QZA+9h3st8v0gbvGTInkuZlwQRGKGtfzL0MO1i0PYAZcDBAkf8cOZK6RGWy/hnOiIC6/3TyfHYnUfOQTd8gW6gYJGRlfKFMxV4lzlp9SxwL2nQSYYe5M08b4XftTh4OOQuOT2cmah3u6weTOB1WeGk/I7BMwyKC7xlqJyOCMRNC2uq3v8YfK560crXJKtSBnHT60MLB6bPGEOr3n4ExkGwoVaHxABaXe1H4DkKD3GU1aETGt66W70KPJF0vEgnWF07MUShzNNFu4IC36jUqIHMflbbIzYYqFT2TYUERtqEzypVjqXNWVbfIzbQOq7SKBrmFHgG6Z58m2j1VbVBZeaSKVPgJuXGNVp91W3QlEtgJBDTzmZzt9VX3Qaj3Utct8CXK1d8Fzkn6codsMF3leu4LJvAkxQrXBVCo5KEu8QmWpjcObOVzQakB0S0hUYGuQ9kjbbR6toF2JbELphGvlBsaSKkuTX9Bo8jvfSAD1lxs+JVsY0G+oimnV30WKWKsCH+PatlTtxDxQUNeMFYt8DjlCr5NcU0h2NMsEtspIFx7jF4L+kcQ8GUfbXVMS9wWkEjuBBzqhoIjDikHQoVbCW75egVW8QPYRrHoYvWij9+2urmGUuUyh0BgeuVCl9hdYvcVvUQuFapcDv2Rm+rWi2BERr7ptXNM2CrlJbAgxQKRljoB1Y3z4C4OxXKHQSBaxQK/p/VzDc0jtLWaAm83+rlGwe0BNaIk+pp9fINjU2HfhBYI0tOX6uXb2iEFffWym9VZfXyjWqNQrUEtrmzYmIz+KI1EkYfki7HXm3q/UXDtmGlRsEppW/jYKubZwwmnXDlVIXikuZEq5tn1CmVu7+C9HJV1VndIn8Z9kHg3UqFj7K6ecbZSuXuhsA7lQofa3WL3FY7NQU+k5xwXIvCPoMRmgJvVioc7soJVr+CmEB6rt3NEHiT4sNPsfoVxBWKZW+CowPpfLYrVYBtQ+w3t1odswJDGLIPaR2MPx5vMCIq9ypVgAefbnXMiemK4iJsdkfaF71GsRG3kL20Ixt6iW20cCRdYtrwKxUrwiGra62e3fB50r39vNkt8IvKjcEZnGqraSeqxSaaWOEWGD+0KVaGidb9VtdO/Ih0gh3TaMsUGFtVy5UbhVu8plltjyRJmalcx3LRtMvk548hNO5hcpJ8lytw4u/nIdTTmQLanU4Ymei2hVA5Ut4jwXhLmYmLk5ZLQ5qL1JKTIL3LG4xfhHHcpFoaenEZiYv8J8+GJO7qtLiUZX26IMRZJE7U3UmlHWKLtiFt0lMUXhrHx90/ZGZ8/yg5u0uVIRoBSzRc9rSuxMRFysJ5pJ97zA2cCYPreVeuNxib/4simHjAk/YT0snCGjYQnfELcjxJo0OuexFlpMzIdmfDBcy/+ii0WWZtKBjZArB5jS2wXkV+AzFM/JSSdfwUyUU/SU6m3qYIh50JmdrlupQDV9+M9FAgbg/5EHU/SYiu/mbmbCo+3hepl56QL8/fKX4huD1lyYekY1Mp+iBDDHFndvvm5RAYi3Gv2V9uZ34/y0IbnpTH5I0cGfDhcR3cC9Jb4Iq9Vyj8iy0xtuE6n1HSS0HcD8foCwff9nyvAqN7RaIur0lUHiDnqrU215pvgMyUEZKykFzp9QwB25xbZD39TTJ/Ewsmmj+WttRJTxVXwA7YuOge4w6Bc/DaDn/YyByZUcYVzGXMY+VP0ziQpU6TbGC+3xF/XJerDfkaV8Fc77OiVuYlrjKGMXczJzFrmNsNN2yWorhpfi3m4r4sWmV9/kJX28ED4zcdEu5HQlbzbHvMkynPNWxFTCrOIv1LsjCZQtLQuN56PpnypGEqFGmxhPzfXYgrY35PXe8OqBJXHcaIRw017D4K5wY0rBDujam4T1OBHFtebh/FRAt3GPrNRovdqfQFH8fIpAj37OG2TORKPjlAwxDMN5DCu02trziB4nT3Eya0w2SCRcW+wekZ2neKeIBG18y5VTxWt8nyppGCBdz/hcK9Ku+A1Bkn3FlIXK8CA/dTcXfe/sBVBxwXy6S7xloSV9duKLJxKyMwaJwy98G1O9fLB70KnBLnh9+35hTqfssI7uPFjseD5By6wpfgkI8yEai/NAKjxiWp+UHRImVSYOA1cT/6xeyMn58jJ7LjoHTdc8TN9y1ydpYyg+T3iGcM9xyMkS/NPyIw7LaYCHyzOKG8oYh14fwi1mrn5invROazzAeZR8nv+jOHMPu5PjeKOZd5fghr32ysjcGad4Hf5y6moVXMdT4frJnZM0d5dcw98rkG+d158rsNIjZ+t1Y+Mz8igT8SsbhwOvX1+9zFnDh4T5Y/fg6Oj5FZXzYgcfjx5ISRrnGNM0jQ+S+Xfxt3AV3KvD6irjEVYbe8R2zuOxuel3VwLmA35XnydxcuIjfmUTKBnaN3IppUTSx25RDkzBC27qb69CY9JNP7ygQKHMUzw7bTgiwLgx4KW8z8gk+RMatGQMFFCRO4KgJxYdtAIVQmTv0tkHHRj8jDZS2Lvdwbyd8xjmOp9JOdwpazyECUa5AxOBM46/pYgC8N3G6vyHpzn6yHEeuEdMfYuKgl54o8BBL0p/AjOmpl0hfWm2skhNlkCls8EJKqLfQ58UpjKHmPIOlTom/uQZnXLDZVoOmD2dha/BTp33Z2dAmKC5tdaFJcDYFJxtVzInInJhXrxWbNpgvWSq2AszHYVHjUalcQiF4dS67zREkQGIDH6zrmDfJ3i+72+ZJMqNTsE0ZylEfICchusZp2GcYQT/awdkVhZb9BNj1EdNxC4UZixHGWPEdssSmMCsNMb4TgtR+SE534ZBmKizafRk6AQ2iXhkWRvwqTiSmyJFhbBsLiXNVF0uZtYVceZYIyBLEhNusa8h8Ok4SUTBulbWjjc1E9RNQZ6OAnxQlC+KZx7HKVx//3dgTP6jXNVIu0Zbi07XCUBjbpizYFBAekz9lm81itoeiyySOytCGH+L8l51zzyjgZM44Cp4EN9qvI2cRAcAE2HnC4+ctaTgEPqCXn9P4F8maix1kg4r4TRyPGWWCLEhiDLZTxfwEGAIg2ItsKhKpcAAAAAElFTkSuQmCC" vertex="1" parent="1">
                    <mxGeometry x="1180.25" y="553.75" width="87.5" height="87.5" as="geometry"/>
                </mxCell>
                <mxCell id="tsc7tQdLC27ZrwXHhPcm-4" value="" style="line;strokeWidth=2;html=1;rounded=0;shadow=0;fontSize=27;align=center;fillColor=none;strokeColor=#E6E6E6;" vertex="1" parent="1">
                    <mxGeometry x="581" y="460" width="210" height="10" as="geometry"/>
                </mxCell>
                <mxCell id="tsc7tQdLC27ZrwXHhPcm-5" value="" style="line;strokeWidth=2;html=1;rounded=0;shadow=0;fontSize=27;align=center;fillColor=none;strokeColor=#E6E6E6;" vertex="1" parent="1">
                    <mxGeometry x="581" y="720" width="210" height="10" as="geometry"/>
                </mxCell>
                <mxCell id="tsc7tQdLC27ZrwXHhPcm-6" value="" style="line;strokeWidth=2;html=1;rounded=0;shadow=0;fontSize=27;align=center;fillColor=none;strokeColor=#E6E6E6;" vertex="1" parent="1">
                    <mxGeometry x="844" y="460" width="210" height="10" as="geometry"/>
                </mxCell>
                <mxCell id="tsc7tQdLC27ZrwXHhPcm-7" value="" style="line;strokeWidth=2;html=1;rounded=0;shadow=0;fontSize=27;align=center;fillColor=none;strokeColor=#E6E6E6;" vertex="1" parent="1">
                    <mxGeometry x="844" y="720" width="210" height="10" as="geometry"/>
                </mxCell>
                <mxCell id="tsc7tQdLC27ZrwXHhPcm-8" value="" style="line;strokeWidth=2;html=1;rounded=0;shadow=0;fontSize=27;align=center;fillColor=none;strokeColor=#E6E6E6;" vertex="1" parent="1">
                    <mxGeometry x="1104" y="460" width="210" height="10" as="geometry"/>
                </mxCell>
                <mxCell id="tsc7tQdLC27ZrwXHhPcm-9" value="" style="line;strokeWidth=2;html=1;rounded=0;shadow=0;fontSize=27;align=center;fillColor=none;strokeColor=#E6E6E6;" vertex="1" parent="1">
                    <mxGeometry x="1104" y="720" width="210" height="10" as="geometry"/>
                </mxCell>
            </root>
        </mxGraphModel>
    </diagram>
</mxfile>